<svg width="185" height="50" viewBox="0 0 185 50" fill="none" xmlns="http://www.w3.org/2000/svg">
<path d="M79.502 32H76.0449L69.1992 22V32H66.1914V17.3516H69.6484L76.4941 27.3711V17.3516H79.502V32ZM90.8887 30.9062C89.6777 31.7656 88.3529 32.1953 86.9141 32.1953C85.8464 32.1953 84.8861 31.9674 84.0332 31.5117C83.1868 31.0495 82.5163 30.4245 82.0215 29.6367C81.5332 28.849 81.2891 27.9603 81.2891 26.9707C81.2891 26.0267 81.5104 25.1836 81.9531 24.4414C82.4023 23.6992 83.0111 23.1133 83.7793 22.6836C84.5475 22.2539 85.4199 22.0391 86.3965 22.0391C87.4056 22.0391 88.2943 22.2767 89.0625 22.752C89.8307 23.2207 90.4297 23.8783 90.8594 24.7246C91.2891 25.5645 91.5039 26.5378 91.5039 27.6445V27.957H84.3066C84.4238 28.3411 84.6126 28.6797 84.873 28.9727C85.14 29.2591 85.472 29.487 85.8691 29.6562C86.2728 29.8255 86.7318 29.9102 87.2461 29.9102C88.2422 29.9102 89.1699 29.5879 90.0293 28.9434L90.8887 30.9062ZM84.1797 26.5312H88.916C88.8639 26.1081 88.7305 25.737 88.5156 25.418C88.3073 25.0924 88.0306 24.8385 87.6855 24.6562C87.347 24.474 86.9661 24.3828 86.543 24.3828C86.1133 24.3828 85.7292 24.4772 85.3906 24.666C85.0586 24.8548 84.7884 25.1087 84.5801 25.4277C84.3717 25.7467 84.2383 26.1146 84.1797 26.5312ZM95.7617 32H91.9141L96.0938 27L92.1289 22.2344H95.9961L98.0273 25.1152L100.039 22.2344H103.877L99.9414 26.9805L104.121 32H100.244L98.0078 28.8262L95.7617 32ZM114.883 32H112.607L112.51 30.4375C112.165 31.0104 111.706 31.4466 111.133 31.7461C110.566 32.0456 109.902 32.1953 109.141 32.1953C107.891 32.1953 106.911 31.8112 106.201 31.043C105.492 30.2747 105.137 29.2201 105.137 27.8789V22.2344H107.939V27.2344C107.939 27.9961 108.118 28.5951 108.477 29.0312C108.841 29.4609 109.336 29.6758 109.961 29.6758C110.612 29.6758 111.126 29.4512 111.504 29.002C111.888 28.5462 112.08 27.931 112.08 27.1562V22.2344H114.883V32ZM116.582 31.1602L117.197 28.7773C117.393 28.9922 117.653 29.1908 117.979 29.373C118.311 29.5553 118.665 29.7018 119.043 29.8125C119.427 29.9167 119.788 29.9688 120.127 29.9688C120.531 29.9688 120.846 29.8939 121.074 29.7441C121.302 29.5879 121.416 29.3796 121.416 29.1191C121.416 28.9043 121.338 28.7253 121.182 28.582C121.032 28.4323 120.827 28.3021 120.566 28.1914C120.312 28.0742 120.029 27.9603 119.717 27.8496C119.294 27.6868 118.857 27.498 118.408 27.2832C117.965 27.0684 117.591 26.7754 117.285 26.4043C116.979 26.0332 116.826 25.5417 116.826 24.9297C116.826 24.3438 116.979 23.8359 117.285 23.4062C117.591 22.9701 118.024 22.6348 118.584 22.4004C119.144 22.1595 119.795 22.0391 120.537 22.0391C121.742 22.0391 122.943 22.3418 124.141 22.9473L123.35 25.1641C123.141 25.0013 122.881 24.8516 122.568 24.7148C122.256 24.5716 121.934 24.4577 121.602 24.373C121.276 24.2884 120.983 24.2461 120.723 24.2461C120.404 24.2461 120.153 24.3112 119.971 24.4414C119.795 24.5716 119.707 24.7507 119.707 24.9785C119.707 25.1478 119.769 25.3008 119.893 25.4375C120.016 25.5677 120.199 25.6947 120.439 25.8184C120.687 25.9355 120.99 26.0625 121.348 26.1992C121.79 26.362 122.236 26.5573 122.686 26.7852C123.141 27.0065 123.522 27.306 123.828 27.6836C124.141 28.0547 124.297 28.5495 124.297 29.168C124.297 29.7734 124.131 30.304 123.799 30.7598C123.473 31.2155 123.011 31.5703 122.412 31.8242C121.82 32.0716 121.123 32.1953 120.322 32.1953C118.988 32.1953 117.741 31.8503 116.582 31.1602ZM143.232 30.125C142.562 30.8021 141.761 31.3327 140.83 31.7168C139.899 32.1009 138.883 32.293 137.783 32.293C136.683 32.293 135.667 32.1042 134.736 31.7266C133.812 31.349 133.008 30.8184 132.324 30.1348C131.641 29.4447 131.11 28.6374 130.732 27.7129C130.355 26.7819 130.166 25.7695 130.166 24.6758C130.166 23.5755 130.355 22.5632 130.732 21.6387C131.11 20.7077 131.641 19.9004 132.324 19.2168C133.008 18.5332 133.812 18.0026 134.736 17.625C135.667 17.2474 136.683 17.0586 137.783 17.0586C138.877 17.0586 139.889 17.2507 140.82 17.6348C141.751 18.0124 142.552 18.5397 143.223 19.2168L142.021 20.4375C141.501 19.8581 140.876 19.4056 140.146 19.0801C139.417 18.748 138.62 18.582 137.754 18.582C136.914 18.582 136.139 18.735 135.43 19.041C134.72 19.3405 134.102 19.7669 133.574 20.3203C133.053 20.8672 132.646 21.5117 132.354 22.2539C132.067 22.9961 131.924 23.8034 131.924 24.6758C131.924 25.5547 132.067 26.3652 132.354 27.1074C132.646 27.8431 133.053 28.4876 133.574 29.041C134.102 29.5879 134.72 30.0143 135.43 30.3203C136.139 30.6198 136.914 30.7695 137.754 30.7695C138.62 30.7695 139.417 30.6068 140.146 30.2812C140.876 29.9492 141.501 29.4935 142.021 28.9141L143.232 30.125ZM147.471 32H145.771V17.3516H147.471V32ZM151.338 19.1484C151.064 19.1484 150.833 19.054 150.645 18.8652C150.462 18.6699 150.371 18.4355 150.371 18.1621C150.371 17.8952 150.462 17.6673 150.645 17.4785C150.833 17.2897 151.064 17.1953 151.338 17.1953C151.618 17.1953 151.852 17.2897 152.041 17.4785C152.23 17.6673 152.324 17.8952 152.324 18.1621C152.324 18.4355 152.23 18.6699 152.041 18.8652C151.852 19.054 151.618 19.1484 151.338 19.1484ZM152.139 32H150.537V22.2344H152.139V32ZM164.365 32H162.764V26.3652C162.764 25.4863 162.516 24.7897 162.021 24.2754C161.533 23.7611 160.866 23.5039 160.02 23.5039C159.414 23.5039 158.87 23.6406 158.389 23.9141C157.907 24.181 157.526 24.5586 157.246 25.0469C156.966 25.5352 156.826 26.1016 156.826 26.7461V32H155.225V22.2344H156.621L156.68 23.8164C157.038 23.2435 157.533 22.804 158.164 22.498C158.802 22.1921 159.518 22.0391 160.312 22.0391C161.556 22.0391 162.542 22.4134 163.271 23.1621C164.001 23.9108 164.365 24.9199 164.365 26.1895V32ZM168.037 19.1484C167.764 19.1484 167.533 19.054 167.344 18.8652C167.161 18.6699 167.07 18.4355 167.07 18.1621C167.07 17.8952 167.161 17.6673 167.344 17.4785C167.533 17.2897 167.764 17.1953 168.037 17.1953C168.317 17.1953 168.551 17.2897 168.74 17.4785C168.929 17.6673 169.023 17.8952 169.023 18.1621C169.023 18.4355 168.929 18.6699 168.74 18.8652C168.551 19.054 168.317 19.1484 168.037 19.1484ZM168.838 32H167.236V22.2344H168.838V32ZM180.039 30.5938C179.564 31.1081 179.001 31.5052 178.35 31.7852C177.699 32.0586 176.999 32.1953 176.25 32.1953C175.28 32.1953 174.408 31.974 173.633 31.5312C172.865 31.0885 172.256 30.4831 171.807 29.7148C171.364 28.9466 171.143 28.0807 171.143 27.1172C171.143 26.1471 171.364 25.2812 171.807 24.5195C172.256 23.7513 172.865 23.1458 173.633 22.7031C174.408 22.2604 175.28 22.0391 176.25 22.0391C176.992 22.0391 177.689 22.1758 178.34 22.4492C178.991 22.7227 179.554 23.1165 180.029 23.6309L179.072 24.6367C178.727 24.2721 178.314 23.9922 177.832 23.7969C177.357 23.6016 176.852 23.5039 176.318 23.5039C175.635 23.5039 175.026 23.6602 174.492 23.9727C173.965 24.2786 173.548 24.7018 173.242 25.2422C172.943 25.7826 172.793 26.4043 172.793 27.1074C172.793 27.8105 172.943 28.4355 173.242 28.9824C173.548 29.5293 173.965 29.959 174.492 30.2715C175.026 30.5775 175.635 30.7305 176.318 30.7305C176.852 30.7305 177.36 30.6328 177.842 30.4375C178.324 30.2357 178.734 29.9557 179.072 29.5977L180.039 30.5938Z" fill="#2B7FFF"/>
<path d="M36.0244 10.9407C35.7285 9.37018 35.4954 7.7997 35.2795 6.22923L35.2007 5.64045L35.162 5.34576L35.1524 5.27239C35.1493 5.24813 35.1467 5.22091 35.1416 5.20493L35.1162 5.09428C35.0496 4.80255 34.9295 4.53212 34.7669 4.29602C34.6025 4.06051 34.4005 3.85577 34.1674 3.69836C33.9344 3.54155 33.681 3.42557 33.4199 3.35989C33.1589 3.29421 32.896 3.27231 32.6394 3.29539L31.4601 3.39599L30.1956 3.49836C29.7739 3.53268 29.3524 3.56503 28.9312 3.5954C27.245 3.72263 25.5595 3.8321 23.8734 3.92914C23.03 3.97944 22.1872 4.02323 21.3438 4.06643L21.0282 4.08299L20.8701 4.09069L20.8301 4.09246L20.811 4.09365L20.8034 4.09483L20.7742 4.10134C20.7547 4.10528 20.7352 4.10864 20.7157 4.1114C20.6961 4.11377 20.6764 4.11436 20.6586 4.12205C20.6218 4.13507 20.5843 4.14099 20.5487 4.15164C20.4058 4.19543 20.2801 4.27176 20.1683 4.35756C20.0565 4.44514 19.9632 4.55047 19.8952 4.66467C19.8279 4.77947 19.7828 4.89841 19.7619 5.01912C19.7485 5.07889 19.7498 5.14043 19.7479 5.20197C19.75 5.21775 19.7515 5.23333 19.7523 5.24872V5.2718V5.28363L19.7517 5.28955L19.7523 5.30493L19.7644 5.59962L19.805 6.77777C19.8603 8.34943 19.899 9.92049 19.9308 11.4916C19.9403 11.8845 19.9441 12.2774 19.9505 12.6703V12.6886L19.9498 12.72L19.9486 12.7839L19.9441 12.9117L19.9314 13.1662C19.9289 13.2514 19.9162 13.336 19.9041 13.4212C19.8918 13.506 19.8789 13.5907 19.8654 13.6751C19.8425 13.8455 19.7923 14.0112 19.7492 14.1781C19.725 14.2609 19.7066 14.3455 19.6748 14.426C19.6456 14.5073 19.6154 14.5883 19.584 14.6692C19.0804 15.9633 18.0567 17.0569 16.7566 17.7054C16.5922 17.7829 16.4264 17.8598 16.2575 17.9273C16.0856 17.99 15.9122 18.0496 15.7373 18.106C15.5599 18.1533 15.3815 18.1971 15.202 18.2374C15.0222 18.2735 14.8393 18.2971 14.6577 18.322C14.5662 18.3362 14.4754 18.3421 14.384 18.3468L14.1096 18.361C13.8924 18.3705 13.8315 18.3664 13.7171 18.3676L13.0846 18.3687L10.5544 18.3569C9.71104 18.3474 8.86829 18.3427 8.0249 18.3297L5.67954 18.2906C5.55464 18.2898 5.43292 18.3094 5.31437 18.3492C5.19624 18.3883 5.07875 18.4486 4.97587 18.5291C4.87235 18.6096 4.78471 18.7096 4.71612 18.8196C4.64944 18.9309 4.60371 19.0534 4.58275 19.1901L4.57767 19.2161L4.5745 19.2285C4.57386 19.2315 4.57323 19.2321 4.57259 19.2362L4.57196 19.2546L4.56624 19.4019L4.55418 19.6966L4.52814 20.286L4.47542 21.4647C4.43541 22.2505 4.39795 23.0364 4.35158 23.8222C4.30903 24.6086 4.25696 25.3945 4.20805 26.1803C4.15344 26.9661 4.10136 27.7519 4.03976 28.5384C4.01097 28.9313 3.98027 29.3242 3.94767 29.7171L3.86765 30.716C3.8613 30.9414 3.90068 31.1716 3.98768 31.3953C4.07469 31.6189 4.21123 31.8332 4.38715 32.0243C4.5637 32.2166 4.7828 32.3799 5.03239 32.5071L5.12575 32.5563C5.15814 32.5699 5.1918 32.5811 5.22482 32.5941L5.32517 32.6344C5.35819 32.6503 5.39439 32.6545 5.42868 32.6657L5.53411 32.6965C5.55189 32.7012 5.56967 32.7077 5.58745 32.7113L5.64207 32.7208L5.75257 32.7415L5.80846 32.7527C5.81862 32.7545 5.82434 32.7569 5.83895 32.758L5.87832 32.7616C6.72213 32.8429 7.56574 32.9298 8.40912 33.0225C10.0965 33.2101 11.7846 33.4137 13.472 33.6764C11.7871 33.9539 10.1016 34.1717 8.41611 34.3741C7.57314 34.4739 6.73039 34.568 5.88785 34.6563L5.84847 34.6605C5.83641 34.6623 5.81545 34.6623 5.79957 34.6634L5.69732 34.6676L5.49156 34.6747L5.38867 34.6776C5.35438 34.6776 5.31945 34.6747 5.28515 34.6729L5.07812 34.6599C5.00889 34.654 4.9384 34.654 4.87045 34.6415L4.66404 34.6096C4.59482 34.5983 4.5256 34.5877 4.45637 34.5741L4.25315 34.5232C3.70888 34.3853 3.18875 34.1469 2.72514 33.8273C2.26089 33.5078 1.85762 33.1024 1.53944 32.6367C1.22063 32.171 0.99962 31.6391 0.88467 31.0864L0.861171 30.9822C0.85355 30.9479 0.85101 30.913 0.845294 30.8781L0.818621 30.668L0.806554 30.5627L0.797028 30.4674L0.783057 30.3201L0.729074 29.7313C0.692663 29.3384 0.657945 28.9457 0.624921 28.5532C0.555697 27.7673 0.495365 26.9821 0.433127 26.1968C0.376604 25.411 0.316906 24.6258 0.266734 23.84C0.212117 23.0547 0.167027 22.2689 0.119396 21.4837L0.0546171 20.3055L0.022863 19.7161L0.00762068 19.4214L0.000634733 19.2741L0 19.2558V19.2268V19.1658L0.00190517 19.0439C0.00698583 18.396 0.141624 17.7379 0.400102 17.1243C0.657945 16.5089 1.04598 15.9438 1.52547 15.4574C2.00559 14.971 2.58224 14.5633 3.22495 14.2656C3.86702 13.968 4.57323 13.7804 5.2877 13.7165L5.55633 13.6982C5.64144 13.6934 5.75131 13.6875 5.78814 13.6869L6.10441 13.6774L6.73632 13.6621L8.0014 13.6313C8.84416 13.6106 9.68755 13.5981 10.5309 13.5816L13.0605 13.5484L13.693 13.5437C13.7889 13.5425 13.9394 13.5431 13.9324 13.5378C13.946 13.5362 13.9597 13.5354 13.9737 13.5354C13.9877 13.536 14.0017 13.5372 14.0144 13.5319C14.0404 13.5242 14.0677 13.5254 14.0931 13.5194C14.1177 13.5104 14.1431 13.5043 14.1693 13.5011C14.1926 13.4889 14.217 13.4798 14.2424 13.4739C14.2659 13.4626 14.2881 13.4484 14.3135 13.4413C14.4075 13.3952 14.4945 13.3319 14.5669 13.2555C14.6399 13.1798 14.6945 13.0922 14.7345 13.0017C14.7392 12.9902 14.7449 12.979 14.7517 12.9679C14.7599 12.9573 14.7568 12.9437 14.7619 12.9324C14.7657 12.9082 14.7841 12.8863 14.7822 12.8603C14.7839 12.8476 14.7862 12.8352 14.7892 12.823C14.793 12.8105 14.7987 12.7987 14.7961 12.7851C14.7957 12.7721 14.7964 12.7591 14.7981 12.746L14.8012 12.7259L14.8031 12.7165L14.8044 12.7111V12.6928C14.8069 12.2999 14.8069 11.907 14.8127 11.514C14.8285 9.94239 14.8514 8.37073 14.8908 6.79907L14.9194 5.62033L14.9289 5.32565L14.9346 5.21203L14.9422 5.08777L14.9606 4.84042C15 4.51141 15.0629 4.183 15.1651 3.86464C15.3639 3.22734 15.6891 2.62673 16.1171 2.106C16.5439 1.58468 17.0697 1.13969 17.6629 0.795296C18.2554 0.451496 18.9178 0.209476 19.6005 0.0917196C19.7707 0.0621327 19.9435 0.0443803 20.1143 0.0248529C20.2001 0.0136099 20.2858 0.011243 20.3722 0.0082843L20.6294 0.00177514L20.7577 0H20.7901L20.8097 0.000592316L20.8498 0.00236746L21.0079 0.0082843L21.3242 0.021894C22.1675 0.0579901 23.0109 0.0940868 23.8543 0.137284C25.5411 0.220127 27.2285 0.315397 28.9153 0.427235C29.337 0.454061 29.7587 0.482661 30.1804 0.513037L31.4461 0.604757L32.0786 0.65328L32.3949 0.676949L32.5759 0.692926L32.7963 0.71482C33.3806 0.782278 33.9502 0.946781 34.4589 1.20182C34.9676 1.45627 35.4198 1.79297 35.785 2.19002C36.1508 2.58649 36.4321 3.04213 36.6119 3.52321C36.7935 4.00429 36.8742 4.51023 36.8545 5.00137L36.8468 5.1854C36.8456 5.21854 36.8424 5.23984 36.8392 5.26529L36.831 5.33866L36.7948 5.63335L36.7217 6.22331C36.5217 7.79556 36.3045 9.36781 36.0244 10.9407Z" fill="#2B7FFF"/>
<path d="M28.4324 22.3805C28.2006 22.4959 27.9675 22.6047 27.7395 22.7225C27.509 22.8355 27.2823 22.9551 27.0562 23.074C26.6059 23.3136 26.1639 23.5616 25.7339 23.8231C25.3027 24.0817 24.8855 24.3563 24.4797 24.6391C24.2764 24.78 24.0802 24.9279 23.8827 25.0735C23.6903 25.2238 23.4966 25.3729 23.3117 25.5291C22.9377 25.8374 22.5814 26.1587 22.2467 26.4942C21.9158 26.8298 21.6046 27.1694 21.329 27.531L21.2242 27.6653C21.1899 27.7097 21.1588 27.757 21.1258 27.8026C21.0616 27.8955 20.9943 27.9848 20.9315 28.0777L20.7511 28.3594C20.7202 28.4056 20.6914 28.4529 20.6647 28.5014L20.5822 28.6458L20.4996 28.789C20.4729 28.8369 20.4488 28.8866 20.4234 28.9358C20.3739 29.034 20.3199 29.1293 20.2741 29.2287L20.137 29.5269C20.0919 29.6263 20.0544 29.7293 20.0125 29.8299C19.8544 30.2364 19.7127 30.6477 19.6092 31.0737C19.5044 31.498 19.4117 31.9264 19.352 32.3661L19.3266 32.53L19.3076 32.6957L19.2682 33.0276C19.2466 33.2578 19.2205 33.4868 19.2028 33.7164C19.1875 33.946 19.1647 34.1744 19.1558 34.404L19.1367 34.7472C19.1304 34.8614 19.1285 34.9762 19.124 35.0904C19.0942 36.0058 19.1088 36.9207 19.1608 37.8509C19.1824 38.3154 19.2148 38.7858 19.2485 39.2574L19.3577 40.6906C19.3939 41.1723 19.4333 41.6581 19.4657 42.1469L19.5686 43.5606L19.6003 43.9038L19.6168 44.0618L19.6251 44.1375L19.6346 44.2085C19.6594 44.3961 19.6899 44.5505 19.7254 44.6683C19.761 44.7866 19.7985 44.8671 19.8372 44.9251C19.848 44.9381 19.8556 44.9535 19.8664 44.9659C19.8779 44.9772 19.8848 44.9914 19.8963 45.002C19.9022 45.008 19.9077 45.0139 19.9128 45.0198C19.9179 45.0257 19.921 45.0316 19.9299 45.0393C19.9458 45.0535 19.9585 45.0695 19.9731 45.0843C20.0912 45.2015 20.2456 45.2961 20.4101 45.3559C20.5752 45.4151 20.7466 45.4405 20.9016 45.4281L22.4112 45.3837L23.9678 45.3447C26.0432 45.2914 28.1193 45.2541 30.1948 45.2228L31.752 45.2026L32.53 45.1944L32.624 45.1926C32.6324 45.191 32.6411 45.1896 32.65 45.1884C32.6669 45.1861 32.6841 45.1851 32.7014 45.1855C32.7192 45.1884 32.7345 45.179 32.751 45.1772C32.7671 45.1736 32.7834 45.1715 32.7999 45.1707C32.9275 45.1435 33.045 45.089 33.1511 45.0133C33.2559 44.9369 33.3505 44.8405 33.4038 44.7292C33.461 44.6198 33.4953 44.5068 33.5004 44.3783C33.5016 44.3705 33.5029 44.3626 33.5042 44.3547L33.5048 44.2677L33.5042 44.0866L33.5035 43.7239L33.5016 42.9984L33.5112 40.0971L33.5378 37.1958C33.541 37.0651 33.5372 36.9923 33.5512 36.7467C33.5567 36.6433 33.5635 36.54 33.5715 36.4366C33.5798 36.3331 33.6007 36.2301 33.6166 36.1271C33.6337 36.0242 33.6515 35.9218 33.6731 35.8194C33.6994 35.7181 33.7269 35.6171 33.7557 35.5165C33.8084 35.3135 33.8878 35.1182 33.9672 34.9236C33.9871 34.875 34.0076 34.8267 34.0288 34.7786L34.0999 34.6372C34.1482 34.5433 34.1975 34.4502 34.2479 34.3579C34.272 34.3105 34.3006 34.2661 34.3292 34.2218L34.4155 34.0886C34.4746 34.0004 34.5324 33.9123 34.5953 33.8265C34.6605 33.7432 34.7269 33.6606 34.7947 33.5785C34.8626 33.4969 34.9293 33.414 35.0055 33.3389C35.1554 33.1874 35.3015 33.0324 35.4698 32.8974C36.122 32.3418 36.9076 31.9217 37.7548 31.6814C37.9682 31.6293 38.1822 31.5743 38.3988 31.5394C38.5076 31.5236 38.6166 31.509 38.7258 31.4956L38.889 31.4761C38.9437 31.4708 38.9983 31.4696 39.0529 31.4666C39.1621 31.4615 39.2714 31.4575 39.3806 31.4548L39.4625 31.453L39.5032 31.4518L39.5292 31.4524L39.6264 31.4548L40.0157 31.4625C41.054 31.4826 42.0918 31.5104 43.1301 31.537C44.1685 31.5643 45.2062 31.5974 46.2446 31.6299L47.0232 31.6572L47.4125 31.6702L47.6068 31.6773L47.6557 31.6791L47.6792 31.6796H47.6894H47.7281C47.9358 31.6903 48.1416 31.6654 48.3429 31.5938L48.3626 31.5885L48.3803 31.5796L48.4165 31.5625C48.4407 31.5518 48.4657 31.5416 48.4915 31.5317C48.5139 31.5175 48.537 31.5039 48.5607 31.4909C48.5842 31.4773 48.6115 31.4684 48.6312 31.4501C48.6725 31.4163 48.7252 31.3926 48.7633 31.3542C48.784 31.3364 48.8056 31.3193 48.8281 31.3027C48.849 31.285 48.8656 31.2637 48.8859 31.2447C49.0396 31.0897 49.1672 30.9033 49.2333 30.6909C49.2392 30.664 49.2466 30.6372 49.2555 30.6104L49.2688 30.5695C49.2745 30.5559 49.2733 30.5417 49.2764 30.5275C49.2803 30.4995 49.2851 30.4713 49.2911 30.4429L49.2961 30.4216C49.2974 30.4127 49.2999 30.4115 49.2999 30.3932L49.305 30.3021L49.345 29.5766L49.4308 28.1257C49.5483 26.1907 49.681 24.2563 49.8334 22.3213C49.91 21.3536 49.9915 20.3861 50.0779 19.4188L50.0944 19.2372L50.0982 19.1922C50.0995 19.1774 50.1014 19.1602 50.1021 19.1514L50.1059 19.0857L50.116 18.9537L50.1186 18.9206L50.1167 18.8874L50.1135 18.8218C50.1118 18.7776 50.1107 18.733 50.1103 18.688L50.0913 18.5555C50.0836 18.5117 50.083 18.4649 50.0703 18.4217L50.0366 18.2898L50.0201 18.2229C50.0138 18.201 50.0043 18.1797 49.9966 18.1584L49.949 18.0277C49.9357 17.9821 49.9103 17.943 49.8906 17.8998L49.829 17.7714L49.7534 17.6495C49.7267 17.6099 49.7064 17.5643 49.674 17.5282L49.5851 17.4111C49.5699 17.3921 49.5559 17.3708 49.54 17.3525L49.4886 17.2986C49.2231 17.0028 48.8789 16.7542 48.482 16.582C48.4318 16.5613 48.3803 16.5448 48.3289 16.5252C48.2775 16.5081 48.2267 16.485 48.1739 16.4708L48.0126 16.4294C47.9587 16.4158 47.9047 16.3986 47.8494 16.3921L47.6818 16.3649L47.5967 16.3513L47.4989 16.3412L47.1095 16.3015C46.0712 16.1921 45.0328 16.0844 43.9938 15.9495C45.0309 15.8057 46.0686 15.6885 47.1057 15.5702L47.495 15.527L47.5922 15.5163L47.7014 15.5104L47.9225 15.4997C47.9974 15.4938 48.0711 15.4992 48.1454 15.5021L48.3696 15.5139C48.4445 15.5187 48.5182 15.5329 48.5925 15.5424C48.6674 15.5536 48.7423 15.5631 48.8166 15.5773C49.4098 15.6962 49.982 15.9483 50.4768 16.3092L50.5707 16.3767C50.6012 16.3998 50.6292 16.4258 50.6584 16.4501L50.8324 16.601C50.8927 16.6495 50.941 16.7081 50.9956 16.7625L51.1538 16.93L51.296 17.111C51.3424 17.172 51.3938 17.2312 51.4319 17.2969L51.5551 17.4927C51.5748 17.5253 51.5964 17.5578 51.6148 17.5915L51.6663 17.6945L51.7679 17.9028C51.8028 17.972 51.8244 18.0454 51.853 18.1176C51.8801 18.1898 51.9061 18.2626 51.9311 18.3359L51.9883 18.5608L52.0156 18.6738L52.0289 18.7306L52.0372 18.788L52.0689 19.0182L52.0835 19.1336L52.093 19.2289L52.1115 19.41C52.2076 20.3769 52.2986 21.3436 52.3845 22.3101C52.5566 24.2439 52.7091 26.1771 52.8456 28.1109L52.9453 29.5612L52.9929 30.2861L52.9987 30.3766C52.9999 30.3885 52.9999 30.4175 52.9999 30.4388V30.508C52.9999 30.6003 52.9991 30.6928 52.9974 30.7855C52.9955 30.8317 52.9974 30.8784 52.9917 30.9246L52.9771 31.0636C52.9669 31.1564 52.9555 31.2491 52.9428 31.3418C52.704 32.8264 51.6999 34.1987 50.2602 34.9543C49.5432 35.3336 48.7233 35.565 47.8945 35.6135L47.7389 35.6242L47.6754 35.6271L47.6265 35.6295L47.4322 35.6378L47.0429 35.6549L46.2649 35.6887C45.2272 35.7301 44.1894 35.7721 43.1511 35.8082C42.1134 35.8437 41.0756 35.881 40.0379 35.9094L39.6486 35.9212L39.5514 35.9242L39.5292 35.9248L39.5216 35.9265L39.5057 35.9295C39.4854 35.9335 39.4651 35.9362 39.4447 35.9378C39.4346 35.9396 39.4244 35.9384 39.4143 35.9408C39.4049 35.9439 39.3954 35.9469 39.3857 35.9496C39.3666 35.9548 39.3474 35.9587 39.3279 35.9615C39.3232 35.9623 39.3184 35.963 39.3133 35.9638L39.2999 35.9697C39.2911 35.9737 39.2822 35.9772 39.2733 35.9804C39.2551 35.9867 39.2364 35.9916 39.2174 35.9952C39.0758 36.0514 38.9475 36.136 38.8433 36.2414C38.8122 36.2632 38.7963 36.2982 38.7703 36.3236C38.755 36.3349 38.7487 36.3526 38.7392 36.3674C38.7294 36.3828 38.7186 36.3974 38.7068 36.4112C38.6985 36.4266 38.6928 36.4437 38.6833 36.4585C38.679 36.466 38.6744 36.4735 38.6693 36.481C38.6642 36.4881 38.6591 36.4952 38.6572 36.5035C38.6522 36.5201 38.6458 36.536 38.6382 36.5514C38.6344 36.5593 38.6304 36.567 38.6261 36.5745C38.624 36.5828 38.6221 36.5911 38.6204 36.5994C38.6128 36.6319 38.595 36.6621 38.5944 36.6964C38.5918 36.713 38.5878 36.7291 38.5823 36.7449C38.5817 36.7615 38.5823 36.7787 38.5804 36.7952C38.5798 36.8124 38.5728 36.8284 38.5747 36.8455C38.5768 36.8629 38.5776 36.8802 38.5772 36.8976C38.5734 36.8935 38.5779 37.0627 38.5804 37.1739L38.6363 40.0752L38.675 42.9759L38.6807 43.7014L38.6833 44.0641L38.6845 44.2452L38.6852 44.3399L38.6801 44.4973C38.6598 45.3358 38.4337 46.182 38.0196 46.9341C37.6094 47.6891 37.0079 48.3442 36.2884 48.8531C35.5688 49.3614 34.7229 49.7265 33.8319 49.8904C33.7205 49.9081 33.6088 49.9247 33.4966 49.9401C33.3848 49.9543 33.273 49.9732 33.1606 49.9774C33.0484 49.9841 32.936 49.9896 32.8234 49.9939L32.6551 49.9999H32.5541L31.7755 49.9975L30.2189 49.9916C28.1428 49.978 26.0667 49.9584 23.9906 49.9235L22.4334 49.8981L20.8292 49.8632C20.3878 49.8501 19.9509 49.7916 19.5305 49.688C19.1094 49.5839 18.7049 49.4348 18.3225 49.2489C17.5598 48.8762 16.8866 48.3483 16.3671 47.7021C16.3023 47.6211 16.2414 47.5376 16.1804 47.4542C16.1188 47.3714 16.0597 47.2761 16.0026 47.1867C15.9448 47.0956 15.8946 47.0009 15.8425 46.9068C15.7924 46.8128 15.7485 46.7169 15.7035 46.621C15.5307 46.2364 15.4221 45.85 15.3548 45.495C15.2875 45.1381 15.2589 44.8115 15.2449 44.5174L15.2398 44.4073L15.2367 44.302C15.2341 44.2304 15.2329 44.1647 15.2322 44.0979L15.231 43.7162L15.2551 42.2297L15.2887 40.7853C15.3091 39.816 15.3396 38.8278 15.4012 37.8231C15.4329 37.3219 15.478 36.8153 15.5301 36.3094C15.5606 36.0556 15.586 35.8023 15.6241 35.549L15.6781 35.1691C15.6958 35.0425 15.7187 34.9165 15.739 34.7898C15.8184 34.2845 15.9213 33.7821 16.0324 33.2838C16.0877 33.0347 16.1512 32.7874 16.2103 32.5394C16.2414 32.414 16.2782 32.285 16.3125 32.1584L16.3652 31.9678L16.4236 31.7773C16.5748 31.2702 16.7596 30.7648 16.9736 30.2695C17.1845 29.7731 17.4353 29.2867 17.7179 28.8186C17.998 28.3487 18.3181 27.8978 18.6699 27.4748L18.802 27.3162C18.8452 27.2629 18.8905 27.211 18.9379 27.1605L19.2174 26.857C19.3126 26.7582 19.4117 26.6623 19.5095 26.5658C19.559 26.5185 19.6067 26.4694 19.6575 26.4232L19.8105 26.2854C19.9141 26.1954 20.0125 26.1007 20.1198 26.0149L20.438 25.7563C20.5441 25.6705 20.6571 25.593 20.7657 25.5114C20.8749 25.4303 20.9848 25.3498 21.0972 25.2764C21.5386 24.9693 22.0009 24.6942 22.469 24.438C22.9383 24.1823 23.4172 23.948 23.9062 23.7403C24.3933 23.5302 24.8867 23.3385 25.3872 23.1716C26.3874 22.8349 27.4042 22.5704 28.4324 22.3805Z" fill="#2B7FFF"/>
<path d="M14.9789 28.4804C14.9183 28.3222 14.8612 28.1628 14.8074 28.0023C14.7528 27.8413 14.7064 27.6786 14.6575 27.5153C14.6342 27.4336 14.6124 27.3513 14.5921 27.2685C14.5701 27.1861 14.55 27.1034 14.5318 27.0206L14.4752 26.7703L14.4257 26.5176C14.2993 25.843 14.2454 25.1483 14.2638 24.4388C14.2803 24.085 14.3057 23.7264 14.3686 23.3684C14.3933 23.1885 14.4333 23.0092 14.4733 22.8293C14.4911 22.7393 14.5191 22.6506 14.5426 22.5606C14.568 22.4713 14.5896 22.3807 14.6188 22.292C14.843 21.5778 15.1802 20.8724 15.6355 20.2191L15.8146 19.9801C15.875 19.9002 15.934 19.8191 16.0007 19.744C16.1322 19.5925 16.2598 19.4345 16.404 19.2925L16.618 19.0747C16.6911 19.0043 16.7685 18.938 16.8441 18.8694C16.9203 18.8019 16.9959 18.7321 17.074 18.6664L17.3141 18.4759C17.9612 17.9729 18.6757 17.5557 19.4175 17.222C19.5102 17.1805 19.6029 17.1356 19.6963 17.0965L19.9776 16.9835L20.2608 16.8728C20.3555 16.8373 20.4476 16.8083 20.5409 16.7758C20.7283 16.7137 20.9143 16.6456 21.1036 16.5894L21.3868 16.5024C21.4808 16.4722 21.5799 16.4498 21.6764 16.4231L21.9673 16.3468L22.2569 16.2793C22.4512 16.232 22.6424 16.1941 22.8342 16.1551C23.2178 16.0781 23.5963 16.0178 23.9716 15.9598C25.4679 15.7385 26.8867 15.6332 28.1683 15.4556C28.3264 15.4326 28.4858 15.4101 28.6395 15.3852L29.0847 15.303C29.1584 15.2894 29.2333 15.2799 29.3063 15.2621L29.5273 15.213C29.674 15.1787 29.822 15.1515 29.9674 15.113C30.2589 15.0331 30.5504 14.9621 30.8381 14.8698L31.0547 14.8041L31.1627 14.7716L31.27 14.7337L31.698 14.5852C33.9729 13.7573 36.1138 12.4703 38.1295 10.9353L38.1613 10.9117C39.2619 10.0732 40.8832 10.2253 41.7825 11.2507C42.1058 11.6194 42.2912 12.0484 42.3458 12.4881L42.3655 12.6437L42.3808 12.7786L42.4087 13.0413C42.4256 13.2137 42.4409 13.3849 42.4544 13.555C42.483 13.8952 42.5014 14.2337 42.5154 14.5716C42.5427 15.2467 42.5529 15.9213 42.5338 16.5965C42.5173 17.2723 42.4811 17.9492 42.4138 18.6268C42.382 18.9656 42.3435 19.3049 42.2982 19.6445C42.2525 19.9836 42.1966 20.3239 42.1382 20.6635C41.8968 22.0222 41.5297 23.3849 40.9785 24.7258C40.6933 25.3939 40.3739 26.0596 39.9757 26.7022C39.5858 27.3466 39.1234 27.9709 38.5893 28.552C38.3226 28.8437 38.0317 29.1201 37.7281 29.3846C37.5706 29.5136 37.4189 29.6449 37.2537 29.7656C37.1718 29.8266 37.0924 29.8899 37.008 29.9479L36.7539 30.1207L36.6898 30.1633L36.6199 30.2077L36.4802 30.2947C36.3869 30.3521 36.2903 30.4142 36.2084 30.4526L35.6965 30.7142C35.525 30.8047 35.3574 30.8746 35.1891 30.9509C35.0208 31.0249 34.8544 31.1024 34.6848 31.1728C33.3258 31.7308 31.9197 32.135 30.4965 32.3876C29.0713 32.635 27.6284 32.7249 26.2103 32.6563C24.7928 32.5835 23.3969 32.3539 22.0886 31.9302C23.4693 31.8284 24.7998 31.6343 26.0814 31.3326C27.3623 31.0337 28.5938 30.6367 29.7629 30.1497C30.9296 29.6568 32.0346 29.0786 33.0546 28.4242C33.1822 28.3425 33.3048 28.2549 33.4299 28.1715C33.5531 28.0869 33.6827 28.0034 33.7919 27.9171L34.1342 27.6644C34.1977 27.6218 34.2327 27.5839 34.2739 27.5454L34.3362 27.4892L34.3667 27.4608L34.4003 27.4283C34.5832 27.2549 34.756 27.0709 34.9198 26.8803C35.0799 26.6839 35.2329 26.4827 35.3764 26.2714C35.9448 25.4217 36.3678 24.4347 36.6714 23.379C36.9775 22.3228 37.1693 21.2026 37.2887 20.0588C37.3173 19.7724 37.3433 19.4854 37.3611 19.1954C37.3814 18.9067 37.3992 18.6167 37.4093 18.325C37.4214 18.0338 37.4265 17.7415 37.4303 17.4486C37.435 17.1559 37.435 16.8626 37.4303 16.5687C37.4189 15.9817 37.4004 15.3929 37.3617 14.8065C37.3414 14.5134 37.3187 14.2221 37.2938 13.9325C37.2811 13.7877 37.2671 13.6445 37.2518 13.5029L37.2283 13.294L37.2055 13.1141L41.4212 14.6668C40.2469 15.5633 38.9977 16.4048 37.6456 17.1332C37.3128 17.322 36.961 17.4877 36.6168 17.6604C36.4421 17.7451 36.2637 17.8238 36.0871 17.9054L35.8216 18.0267L35.5511 18.1403L35.0075 18.3623L34.4524 18.567C34.359 18.6001 34.2682 18.6368 34.1736 18.667L33.891 18.7599C33.7024 18.8203 33.5156 18.8853 33.3232 18.9386L32.7472 19.099L32.603 19.1386L32.457 19.1735L32.1648 19.2422C31.9692 19.286 31.7768 19.338 31.5774 19.3718L30.9848 19.4812C30.7873 19.5167 30.586 19.5404 30.3872 19.57L30.0881 19.6114C29.989 19.6268 29.8874 19.6327 29.7877 19.644L29.185 19.6984C28.9888 19.712 28.7976 19.7215 28.6046 19.7321C27.0778 19.8008 25.6737 19.7511 24.3609 19.7771C24.1996 19.7818 24.0351 19.7842 23.8751 19.7907C23.7163 19.799 23.5531 19.8031 23.3982 19.8132C23.2413 19.8227 23.0832 19.8304 22.9307 19.8446L22.6996 19.8635L22.4735 19.8889C22.3236 19.9037 22.1705 19.9268 22.0168 19.9487C21.8625 19.9682 21.7126 19.9984 21.5596 20.0227C21.484 20.0357 21.4046 20.0469 21.3316 20.0617L21.1138 20.1091L20.8947 20.154C20.8223 20.17 20.7524 20.1907 20.6813 20.2085C19.5381 20.4978 18.5023 20.9801 17.6443 21.7239L17.4881 21.8683C17.4366 21.9174 17.3808 21.9636 17.3338 22.0162C17.236 22.1204 17.1324 22.2216 17.0423 22.3334L16.9006 22.4985L16.7679 22.6725L16.7012 22.7595C16.68 22.7894 16.6593 22.8198 16.639 22.8506L16.5139 23.0334C16.1906 23.5299 15.9258 24.0826 15.7092 24.6678C15.285 25.8448 15.076 27.1436 14.9789 28.4804Z" fill="#008053"/>
</svg>
